<svg xmlns="http://www.w3.org/2000/svg" width="198.1" height="35" viewBox="0 0 198.1 35"><rect class="svg__rect" x="0" y="0" width="85.93" height="35" fill="#959296"/><rect class="svg__rect" x="83.93" y="0" width="114.16999999999999" height="35" fill="#4D4D4D"/><path class="svg__text" d="M15.69 22L14.22 22L14.22 13.47L16.14 13.47L18.60 20.01L21.06 13.47L22.97 13.47L22.97 22L21.49 22L21.49 19.19L21.64 15.43L19.12 22L18.06 22L15.55 15.43L15.69 19.19L15.69 22ZM29.75 18.86L26.89 13.47L28.53 13.47L30.49 17.51L32.46 13.47L34.10 13.47L31.24 18.86L31.24 22L29.75 22L29.75 18.86ZM46.44 22L43.99 22L43.99 13.47L46.51 13.47Q47.64 13.47 48.52 13.97Q49.39 14.48 49.87 15.40Q50.35 16.33 50.35 17.52L50.35 17.52L50.35 17.95Q50.35 19.16 49.87 20.08Q49.39 21.00 48.49 21.50Q47.60 22 46.44 22L46.44 22ZM45.47 14.66L45.47 20.82L46.44 20.82Q47.60 20.82 48.23 20.09Q48.85 19.36 48.86 17.99L48.86 17.99L48.86 17.52Q48.86 16.13 48.26 15.40Q47.66 14.66 46.51 14.66L46.51 14.66L45.47 14.66ZM55.60 22L54.06 22L57.28 13.47L58.61 13.47L61.84 22L60.29 22L59.59 20.01L56.29 20.01L55.60 22ZM57.94 15.28L56.70 18.82L59.18 18.82L57.94 15.28ZM68.25 22L65.79 22L65.79 13.47L68.31 13.47Q69.44 13.47 70.32 13.97Q71.19 14.48 71.67 15.40Q72.15 16.33 72.15 17.52L72.15 17.52L72.15 17.95Q72.15 19.16 71.67 20.08Q71.19 21.00 70.29 21.50Q69.40 22 68.25 22L68.25 22ZM67.27 14.66L67.27 20.82L68.24 20.82Q69.41 20.82 70.03 20.09Q70.65 19.36 70.67 17.99L70.67 17.99L70.67 17.52Q70.67 16.13 70.06 15.40Q69.46 14.66 68.31 14.66L68.31 14.66L67.27 14.66Z" fill="#FFFFFF"/><path class="svg__text" d="M102.66 22L98.12 22L98.12 13.60L102.42 13.60Q104.02 13.60 104.86 14.19Q105.71 14.79 105.71 15.79L105.71 15.79Q105.71 16.39 105.41 16.87Q105.11 17.34 104.57 17.62L104.57 17.62Q105.30 17.87 105.70 18.41Q106.11 18.94 106.11 19.70L106.11 19.70Q106.11 20.80 105.22 21.40Q104.33 22 102.66 22L102.66 22ZM100.47 18.58L100.47 20.28L102.47 20.28Q103.71 20.28 103.71 19.43L103.71 19.43Q103.71 18.58 102.47 18.58L102.47 18.58L100.47 18.58ZM100.47 15.31L100.47 16.94L102.10 16.94Q103.30 16.94 103.30 16.12L103.30 16.12Q103.30 15.31 102.10 15.31L102.10 15.31L100.47 15.31ZM117.57 22L110.83 22L110.83 13.60L117.42 13.60L117.42 15.44L113.18 15.44L113.18 16.85L116.91 16.85L116.91 18.63L113.18 18.63L113.18 20.17L117.57 20.17L117.57 22ZM123.79 22L121.37 22L125.08 13.60L127.42 13.60L131.14 22L128.67 22L128.01 20.37L124.46 20.37L123.79 22ZM126.23 15.93L125.15 18.61L127.31 18.61L126.23 15.93ZM137.08 15.48L134.50 15.48L134.50 13.60L142.02 13.60L142.02 15.48L139.46 15.48L139.46 22L137.08 22L137.08 15.48ZM145.81 21.24L145.81 21.24L146.59 19.49Q147.15 19.86 147.89 20.09Q148.64 20.32 149.36 20.32L149.36 20.32Q150.72 20.32 150.73 19.64L150.73 19.64Q150.73 19.28 150.34 19.11Q149.95 18.93 149.08 18.74L149.08 18.74Q148.13 18.53 147.50 18.30Q146.86 18.06 146.41 17.55Q145.95 17.03 145.95 16.16L145.95 16.16Q145.95 15.39 146.37 14.77Q146.79 14.15 147.63 13.79Q148.46 13.43 149.67 13.43L149.67 13.43Q150.49 13.43 151.30 13.62Q152.11 13.80 152.72 14.17L152.72 14.17L151.99 15.93Q150.79 15.28 149.66 15.28L149.66 15.28Q148.95 15.28 148.63 15.49Q148.30 15.70 148.30 16.04L148.30 16.04Q148.30 16.37 148.69 16.54Q149.07 16.71 149.92 16.89L149.92 16.89Q150.88 17.10 151.51 17.33Q152.14 17.56 152.60 18.07Q153.07 18.58 153.07 19.46L153.07 19.46Q153.07 20.21 152.65 20.83Q152.23 21.44 151.39 21.80Q150.55 22.17 149.35 22.17L149.35 22.17Q148.33 22.17 147.37 21.92Q146.41 21.67 145.81 21.24ZM166.81 22L164.62 22L164.62 13.60L166.57 13.60L169.53 18.45L172.41 13.60L174.36 13.60L174.38 22L172.20 22L172.18 17.55L170.02 21.17L168.96 21.17L166.81 17.67L166.81 22ZM186.29 22L179.55 22L179.55 13.60L186.14 13.60L186.14 15.44L181.90 15.44L181.90 16.85L185.63 16.85L185.63 18.63L181.90 18.63L181.90 20.17L186.29 20.17L186.29 22Z" fill="#FFFFFF" x="96.93"/></svg>